<?xml version="1.0" encoding="utf-8"?>
<!-- Generator: Adobe Illustrator 19.2.1, SVG Export Plug-In . SVG Version: 6.00 Build 0)  -->
<svg version="1.1" id="Layer_1" xmlns="http://www.w3.org/2000/svg" xmlns:xlink="http://www.w3.org/1999/xlink" x="0px" y="0px"
	 width="34.5px" height="34.1px" viewBox="0 0 34.5 34.1" style="enable-background:new 0 0 34.5 34.1;" xml:space="preserve">
<style type="text/css">
	.st0{fill:none;}
	.st1{fill:#93968F;}
</style>
<g>
	<path class="st0" d="M21.4,2.7c0.2-0.2,0.3-0.4,0.3-0.7s-0.1-0.5-0.3-0.7C21.2,1.1,20.9,1,20.7,1c-0.3,0-0.5,0.1-0.7,0.3l-6,5.9
		c-0.4,0.4-0.4,1,0,1.4c0.2,0.2,0.4,0.3,0.7,0.3c0.3,0,0.5-0.1,0.7-0.3L21.4,2.7z"/>
	<polygon class="st0" points="28.9,10.9 23.4,16.3 24.6,17.4 24.6,17.4 25.3,18.2 29.7,14 30.8,12.9 	"/>
	<path class="st0" d="M10,22.3l-8.3,7.5C1.3,30.2,1,30.7,1,31.2c0,0.5,0.2,1,0.5,1.4c0.4,0.3,0.9,0.5,1.3,0.5c0.6,0,1.1-0.2,1.4-0.6
		l7.7-8.1L10,22.3z"/>
	<polygon class="st0" points="17.1,9.8 18.2,11 23.7,5.6 22.6,4.5 22.6,4.5 21.8,3.7 16.3,9 17.1,9.8 	"/>
	<polygon class="st0" points="19.5,13.7 10.7,21.6 12.6,23.6 20.7,15 20.2,14.5 	"/>
	<path class="st0" d="M32.5,13.1C32.5,13.1,32.5,13.1,32.5,13.1c-0.3,0-0.5,0.1-0.7,0.3l-6,5.9c-0.4,0.4-0.4,1,0,1.4
		c0.4,0.4,1,0.4,1.4,0l6-5.9c0.2-0.2,0.3-0.4,0.3-0.7s-0.1-0.5-0.3-0.7C33,13.2,32.7,13.1,32.5,13.1z"/>
	<polygon class="st0" points="24.4,6.3 18.9,11.7 19.6,12.3 19.6,12.3 20,12.8 20.7,13.5 21.2,14 22.7,15.6 28.2,10.2 	"/>
	<path class="st1" d="M33.9,12.7c-0.4-0.4-0.9-0.6-1.4-0.6c0,0,0,0,0,0c-0.3,0-0.6,0.1-0.8,0.2l-0.9-0.9l0,0l-5.6-5.7l0,0l-2.7-2.7
		c0.1-0.3,0.2-0.6,0.2-0.9c0-0.5-0.2-1-0.6-1.4S21.2,0,20.7,0c0,0,0,0,0,0c-0.5,0-1,0.2-1.4,0.6l-6,5.9c-0.8,0.8-0.8,2.1,0,2.9
		c0.4,0.4,0.9,0.6,1.4,0.6c0,0,0,0,0,0c0.3,0,0.7-0.1,1-0.3l2.7,2.7l0,0l0.6,0.6L1,29c-0.6,0.6-1,1.3-1,2.1c0,0.7,0.2,1.4,0.7,2l0,0
		c0,0,0.1,0.1,0.1,0.1c0,0,0.1,0.1,0.1,0.1l0,0c0.5,0.5,1.2,0.7,1.9,0.7c0,0,0,0,0,0c0.8,0,1.6-0.3,2.2-0.9l16.4-17.5l0.6,0.6l0,0
		l2.7,2.7c-0.2,0.3-0.3,0.6-0.3,1c0,0.5,0.2,1,0.6,1.4s0.9,0.6,1.4,0.6c0,0,0,0,0,0c0.5,0,1-0.2,1.4-0.6l6-5.9
		c0.4-0.4,0.6-0.9,0.6-1.4S34.3,13.1,33.9,12.7z M25.3,18.2l-0.8-0.8l0,0l-1.1-1.1l5.5-5.4l1.9,1.9L29.7,14L25.3,18.2z M14.6,8.9
		c-0.3,0-0.5-0.1-0.7-0.3c-0.4-0.4-0.4-1,0-1.4l6-5.9C20.1,1.1,20.4,1,20.7,1c0.3,0,0.5,0.1,0.7,0.3c0.2,0.2,0.3,0.4,0.3,0.7
		s-0.1,0.5-0.3,0.7l-6,5.9C15.1,8.8,14.9,8.9,14.6,8.9z M21.8,3.7l0.8,0.8l0,0l1.1,1.1L18.2,11l-1.1-1.1l0,0L16.3,9L21.8,3.7z
		 M4.3,32.4c-0.4,0.4-0.9,0.6-1.4,0.6c-0.5,0-1-0.2-1.3-0.5C1.2,32.2,1,31.7,1,31.2c0-0.6,0.3-1.1,0.7-1.4l8.3-7.5l2,2L4.3,32.4z
		 M12.6,23.6l-1.9-1.9l8.8-7.9l0.7,0.7l0.5,0.5L12.6,23.6z M21.2,14l-0.5-0.5L20,12.8l-0.5-0.5l0,0l-0.6-0.6l5.5-5.4l3.8,3.9
		l-5.5,5.4L21.2,14z M33.2,14.8l-6,5.9c-0.4,0.4-1,0.4-1.4,0c-0.4-0.4-0.4-1,0-1.4l6-5.9c0.2-0.2,0.4-0.3,0.7-0.3c0,0,0,0,0,0
		c0.3,0,0.5,0.1,0.7,0.3c0.2,0.2,0.3,0.4,0.3,0.7S33.4,14.6,33.2,14.8z"/>
</g>
</svg>
