<?xml version="1.0" encoding="utf-8"?>
<!-- Generator: Adobe Illustrator 19.2.1, SVG Export Plug-In . SVG Version: 6.00 Build 0)  -->
<svg version="1.1" id="Layer_1" xmlns="http://www.w3.org/2000/svg" xmlns:xlink="http://www.w3.org/1999/xlink" x="0px" y="0px"
	 width="448px" height="512px" viewBox="0 0 448 512" style="enable-background:new 0 0 448 512;" xml:space="preserve">
<g>
	<path d="M16,109.6h416c8.8,0,16-4.9,16-11V71c0-6.1-7.2-11-16-11H16C7.2,60,0,64.9,0,71v27.6C0,104.7,7.2,109.6,16,109.6z"/>
	<path d="M16,280.8h416c8.8,0,16-4.9,16-11v-27.6c0-6.1-7.2-11-16-11H16c-8.8,0-16,4.9-16,11v27.6C0,275.9,7.2,280.8,16,280.8z"/>
	<path d="M16,452h416c8.8,0,16-4.9,16-11v-27.6c0-6.1-7.2-11-16-11H16c-8.8,0-16,4.9-16,11V441C0,447.1,7.2,452,16,452z"/>
</g>
</svg>
