<?xml version="1.0" encoding="utf-8"?>
<!-- Generator: Adobe Illustrator 19.2.1, SVG Export Plug-In . SVG Version: 6.00 Build 0)  -->
<svg version="1.1" id="Layer_1" xmlns="http://www.w3.org/2000/svg" xmlns:xlink="http://www.w3.org/1999/xlink" x="0px" y="0px"
	 width="35.8px" height="33.9px" viewBox="0 0 35.8 33.9" style="enable-background:new 0 0 35.8 33.9;" xml:space="preserve">
<style type="text/css">
	.st0{fill:none;}
	.st1{fill:#93968F;}
</style>
<g>
	<circle class="st0" cx="6.7" cy="23.5" r="2.4"/>
	<path class="st0" d="M27.9,14.2c-0.5-0.1-1-0.2-1.4-0.3v16.5c0,1.4,1.1,2.5,2.5,2.5s2.5-1.1,2.5-2.5V13.7c-0.9,0.4-1.8,0.6-2.7,0.6
		C28.4,14.3,28.1,14.2,27.9,14.2z"/>
	<path class="st0" d="M34.7,5.9c-0.5-2.5-2.5-4.4-5-4.8c-0.9-0.1-1.7-0.1-2.5,0.1l2.6,2.7c0.6,0.7,1,1.5,0.9,2.4s-0.4,1.8-1.1,2.4
		c-1.3,1.3-3.4,1.2-4.7-0.1l-2.3-2.3c-0.1,0.5-0.1,1,0,1.5c0.3,2.8,2.6,5.1,5.4,5.4c2,0.2,3.8-0.5,5.2-1.9C34.5,9.8,35,7.9,34.7,5.9
		z"/>
	<path class="st1" d="M23.5,23.2H10.1c-0.2-1.7-1.6-3.1-3.4-3.1c-1.7,0-3.1,1.3-3.4,2.9H1v-4.5c0-0.6,0.4-1.1,1-1.2l7.6-1.8
		c0.1,0,0.1-0.1,0.2-0.1l6.1-5.1h4c0.3,0,0.5-0.2,0.5-0.5s-0.2-0.5-0.5-0.5h-4.2c-0.1,0-0.2,0-0.3,0.1l-6.2,5.1l-7.4,1.8
		c-1,0.2-1.7,1.2-1.7,2.2v5C0,23.8,0.2,24,0.5,24h2.8c0.2,1.6,1.7,2.9,3.4,2.9c1.6,0,3-1.2,3.3-2.7h13.5c0.3,0,0.5-0.2,0.5-0.5
		S23.8,23.2,23.5,23.2z M6.7,25.9c-1.3,0-2.4-1.1-2.4-2.4s1.1-2.4,2.4-2.4s2.4,1.1,2.4,2.4S8,25.9,6.7,25.9z"/>
	<path class="st1" d="M35.6,5.7c-0.5-2.9-2.9-5.2-5.8-5.6C28.5-0.1,27.2,0,26,0.5c-0.2,0.1-0.3,0.2-0.3,0.4c0,0.2,0,0.3,0.1,0.5
		L29,4.6c0.4,0.5,0.7,1.1,0.7,1.7c0,0.6-0.3,1.2-0.8,1.7c-0.9,0.9-2.4,0.9-3.3,0l-3-3c-0.1-0.1-0.3-0.2-0.5-0.1
		c-0.2,0-0.3,0.2-0.4,0.3C21.5,6.1,21.5,7,21.6,8c0.3,2.4,1.8,4.5,3.9,5.5v16.9c0,1.9,1.6,3.5,3.5,3.5s3.5-1.6,3.5-3.5V13.2
		c0,0,0,0,0,0c0.5-0.3,1.1-0.7,1.5-1.2C35.4,10.3,36.1,8,35.6,5.7z M31.4,30.4c0,1.4-1.1,2.5-2.5,2.5s-2.5-1.1-2.5-2.5V13.9
		c0.5,0.1,0.9,0.3,1.4,0.3c0.3,0,0.5,0,0.8,0c1,0,1.9-0.2,2.7-0.6V30.4z M28,13.2c-2.8-0.3-5.1-2.6-5.4-5.4c-0.1-0.5-0.1-1,0-1.5
		l2.3,2.3c1.3,1.3,3.4,1.3,4.7,0.1c0.7-0.6,1-1.5,1.1-2.4s-0.3-1.8-0.9-2.4l-2.6-2.7c0.8-0.2,1.7-0.3,2.5-0.1c2.5,0.4,4.5,2.4,5,4.8
		c0.4,2-0.2,3.9-1.5,5.4C31.8,12.7,29.9,13.4,28,13.2z"/>
</g>
</svg>
