<?xml version="1.0" encoding="utf-8"?>
<!-- Generator: Adobe Illustrator 19.2.1, SVG Export Plug-In . SVG Version: 6.00 Build 0)  -->
<svg version="1.1" id="Layer_1" xmlns="http://www.w3.org/2000/svg" xmlns:xlink="http://www.w3.org/1999/xlink" x="0px" y="0px"
	 width="352px" height="512px" viewBox="0 0 352 512" style="enable-background:new 0 0 352 512;" xml:space="preserve">
<path d="M342.9,375.3L226.6,256h-0.1l116.3-119.3c12.3-12.3,12.3-32.2,0-44.5l-3-3c-6.1-6.1-14.2-9.2-22.2-9.2
	c-8,0-16.1,3.1-22.2,9.2L176.1,213.9L56.8,89.2C50.7,83.1,42.6,80,34.6,80c-8,0-16.1,3.1-22.2,9.2l-3,3c-12.3,12.3-12.3,32.2,0,44.5
	L125.6,256h-0.1L9.2,375.3c-12.3,12.3-12.3,32.2,0,44.5l3,3c6.1,6.1,14.2,9.2,22.2,9.2c8,0,16.1-3.1,22.2-9.2L176,298.1h0.1
	l119.3,124.7c6.1,6.1,14.2,9.2,22.2,9.2c8,0,16.1-3.1,22.2-9.2l3-3C355.2,407.5,355.2,387.6,342.9,375.3z"/>
</svg>
