<?xml version="1.0" encoding="utf-8"?>
<!-- Generator: Adobe Illustrator 19.2.1, SVG Export Plug-In . SVG Version: 6.00 Build 0)  -->
<svg version="1.1" id="Layer_1" xmlns="http://www.w3.org/2000/svg" xmlns:xlink="http://www.w3.org/1999/xlink" x="0px" y="0px"
	 width="23.8px" height="22.8px" viewBox="0 0 23.8 22.8" style="enable-background:new 0 0 23.8 22.8;" xml:space="preserve">
<style type="text/css">
	.st0{fill:#FFFFFF;}
</style>
<g>
	<path class="st0" d="M2.8,22.8c-1.8,0-2.5-0.7-2.6-0.8C0,21.9,0,21.7,0,21.6s0.1-0.3,0.3-0.4c1.4-0.8,2.6-2.5,3-3.2
		C1.2,16,0,13.4,0,10.6C0,4.8,5.3,0,11.9,0s11.9,4.8,11.9,10.6s-5.3,10.6-11.9,10.6C11,21.3,9.5,21.1,9,21
		C6.2,22.4,4.1,22.8,2.8,22.8z M1.5,21.6c1,0.3,3.1,0.4,7.3-1.6c0.1,0,0.2-0.1,0.3,0c0,0,1.9,0.3,2.8,0.3c6,0,10.9-4.3,10.9-9.6
		S17.9,1,11.9,1S1,5.3,1,10.6c0,2.6,1.1,5,3.2,6.8c0.2,0.2,0.2,0.4,0.1,0.6C4.3,18.2,3.2,20.3,1.5,21.6z"/>
</g>
<g>
	<rect x="11.2" y="9.1" class="st0" width="1.3" height="6.8"/>
</g>
<g>
	<rect x="11.2" y="5.7" class="st0" width="1.3" height="1.6"/>
</g>
</svg>
