<?xml version="1.0" encoding="utf-8"?>
<!-- Generator: Adobe Illustrator 19.2.1, SVG Export Plug-In . SVG Version: 6.00 Build 0)  -->
<svg version="1.1" id="Layer_1" xmlns="http://www.w3.org/2000/svg" xmlns:xlink="http://www.w3.org/1999/xlink" x="0px" y="0px"
	 width="448px" height="512px" viewBox="0 0 448 512" style="enable-background:new 0 0 448 512;" xml:space="preserve">
<style type="text/css">
	.st0{fill:none;}
</style>
<g>
	<path class="st0" d="M343.7,109.5c-14.8,0-26.8,12-26.8,26.8c0,14.8,11.9,26.8,26.8,26.8c14.8,0,26.8-11.9,26.8-26.8
		C370.5,121.5,358.5,109.5,343.7,109.5z"/>
	<path d="M224.1,181.2c-41.2,0-74.7,33.5-74.7,74.7s33.6,74.7,74.7,74.7s74.7-33.5,74.7-74.7S265.3,181.2,224.1,181.2z"/>
	<path d="M446.6,163.5c-1.7-35.9-9.9-67.7-36.2-93.9c-26.2-26.2-58-34.4-93.9-36.2c-37-2.1-147.9-2.1-184.9,0
		C95.8,35.1,64,43.3,37.7,69.5s-34.4,58-36.2,93.9c-2.1,37-2.1,147.9,0,184.9c1.7,35.9,9.9,67.7,36.2,93.9
		c26.3,26.2,58,34.4,93.9,36.2c37,2.1,147.9,2.1,184.9,0c35.9-1.7,67.7-9.9,93.9-36.2c26.2-26.2,34.4-58,36.2-93.9
		C448.7,311.3,448.7,200.5,446.6,163.5z M224.1,370.8c-63.6,0-114.9-51.3-114.9-114.9S160.5,141,224.1,141S339,192.3,339,255.9
		S287.7,370.8,224.1,370.8z M343.7,163.1c-14.9,0-26.8-12-26.8-26.8c0-14.8,12-26.8,26.8-26.8s26.8,12,26.8,26.8
		C370.5,151.2,358.5,163.1,343.7,163.1z"/>
</g>
</svg>
