<?xml version="1.0" encoding="utf-8"?>
<!-- Generator: Adobe Illustrator 19.2.1, SVG Export Plug-In . SVG Version: 6.00 Build 0)  -->
<svg version="1.1" id="Layer_1" xmlns="http://www.w3.org/2000/svg" xmlns:xlink="http://www.w3.org/1999/xlink" x="0px" y="0px"
	 width="23.8px" height="34.6px" viewBox="0 0 23.8 34.6" style="enable-background:new 0 0 23.8 34.6;" xml:space="preserve">
<g>
	<path d="M11.9,17c-2.6,0-4.8-2.1-4.8-4.8s2.1-4.8,4.8-4.8s4.8,2.1,4.8,4.8S14.6,17,11.9,17z M11.9,8.4c-2.1,0-3.8,1.7-3.8,3.8
		S9.8,16,11.9,16c2.1,0,3.8-1.7,3.8-3.8S14,8.4,11.9,8.4z"/>
</g>
<g>
	<path d="M11.9,34.6c-0.1,0-0.3-0.1-0.4-0.2C0.6,22.1,0,12.4,0,11.9C0,5.3,5.3,0,11.9,0s11.9,5.3,11.9,11.9
		c0,0.4-0.6,10.2-11.5,22.5C12.2,34.5,12.1,34.6,11.9,34.6z M11.9,1C5.9,1,1,5.9,1,11.9c0,0.1,0.6,9.6,10.9,21.4
		C22.2,21.5,22.8,12,22.8,11.9C22.8,5.9,17.9,1,11.9,1z"/>
</g>
<g>
	<path d="M11.9,17c-2.6,0-4.8-2.1-4.8-4.8s2.1-4.8,4.8-4.8s4.8,2.1,4.8,4.8S14.6,17,11.9,17z M11.9,8.4c-2.1,0-3.8,1.7-3.8,3.8
		S9.8,16,11.9,16c2.1,0,3.8-1.7,3.8-3.8S14,8.4,11.9,8.4z"/>
</g>
<g>
	<path d="M11.9,34.6c-0.1,0-0.3-0.1-0.4-0.2C0.6,22.1,0,12.4,0,11.9C0,5.3,5.3,0,11.9,0s11.9,5.3,11.9,11.9
		c0,0.4-0.6,10.2-11.5,22.5C12.2,34.5,12.1,34.6,11.9,34.6z M11.9,1C5.9,1,1,5.9,1,11.9c0,0.1,0.6,9.6,10.9,21.4
		C22.2,21.5,22.8,12,22.8,11.9C22.8,5.9,17.9,1,11.9,1z"/>
</g>
</svg>
