<?xml version="1.0" encoding="utf-8"?>
<!-- Generator: Adobe Illustrator 19.2.1, SVG Export Plug-In . SVG Version: 6.00 Build 0)  -->
<svg version="1.1" id="Layer_1" xmlns="http://www.w3.org/2000/svg" xmlns:xlink="http://www.w3.org/1999/xlink" x="0px" y="0px"
	 width="28.3px" height="28.3px" viewBox="0 0 28.3 28.3" style="enable-background:new 0 0 28.3 28.3;" xml:space="preserve">
<style type="text/css">
	.st0{fill:none;}
	.st1{fill:#F2F2F2;}
</style>
<g>
	<path class="st0" d="M14.2,1C6.9,1,1,6.9,1,14.2c0,7.3,5.9,13.2,13.2,13.2s13.2-5.9,13.2-13.2C27.3,6.9,21.4,1,14.2,1z M19,14.6
		h-4.3V19h-1v-4.3H9.3v-1h4.3V9.3h1v4.3H19V14.6z"/>
	<path class="st1" d="M14.2,0C6.4,0,0,6.4,0,14.2s6.4,14.2,14.2,14.2c7.8,0,14.2-6.4,14.2-14.2S22,0,14.2,0z M14.2,27.3
		C6.9,27.3,1,21.4,1,14.2C1,6.9,6.9,1,14.2,1s13.2,5.9,13.2,13.2C27.3,21.4,21.4,27.3,14.2,27.3z"/>
	<polygon class="st1" points="14.7,9.3 13.7,9.3 13.7,13.6 9.3,13.6 9.3,14.6 13.7,14.6 13.7,19 14.7,19 14.7,14.6 19,14.6 19,13.6 
		14.7,13.6 	"/>
</g>
</svg>
