<svg width="26" height="25" viewBox="0 0 26 25" fill="none" xmlns="http://www.w3.org/2000/svg">
<path d="M3.05882 25C1.09244 25 0.327731 24.2325 0.218487 24.1228C0 24.0132 0 23.7939 0 23.6842C0 23.5746 0.109244 23.3553 0.327731 23.2456C1.85714 22.3684 3.16807 20.5044 3.60504 19.7368C1.31092 17.5439 0 14.693 0 11.6228C0 5.26316 5.78992 0 13 0C20.2101 0 26 5.26316 26 11.6228C26 17.9825 20.2101 23.2456 13 23.2456C12.0168 23.3553 10.3782 23.136 9.83193 23.0263C6.77311 24.5614 4.47899 25 3.05882 25ZM1.63866 23.6842C2.73109 24.0132 5.02521 24.1228 9.61345 21.9298C9.72269 21.9298 9.83193 21.8202 9.94118 21.9298C9.94118 21.9298 12.0168 22.2588 13 22.2588C19.5546 22.2588 24.9076 17.5439 24.9076 11.7325C24.9076 5.92105 19.5546 1.09649 13 1.09649C6.44538 1.09649 1.09244 5.8114 1.09244 11.6228C1.09244 14.4737 2.29412 17.1053 4.58824 19.0789C4.80672 19.2982 4.80672 19.5175 4.69748 19.7368C4.69748 19.9561 3.4958 22.2588 1.63866 23.6842Z" fill="#636363"/>
<path d="M13.6545 9.97806H12.2344V17.4342H13.6545V9.97806Z" fill="#636363"/>
<path d="M13.6545 6.25H12.2344V8.00439H13.6545V6.25Z" fill="#636363"/>
</svg>
