<?xml version="1.0" encoding="utf-8"?>
<!-- Generator: Adobe Illustrator 19.2.1, SVG Export Plug-In . SVG Version: 6.00 Build 0)  -->
<svg version="1.1" id="Layer_1" xmlns="http://www.w3.org/2000/svg" xmlns:xlink="http://www.w3.org/1999/xlink" x="0px" y="0px"
	 width="700.7px" height="134.3px" viewBox="0 0 700.7 134.3" style="enable-background:new 0 0 700.7 134.3;" xml:space="preserve"
	>
<style type="text/css">
	.st0{fill:none;}
	.st1{fill:#3E7337;}
	.st2{fill:#EDF2E7;}
	.st3{fill:#7EB442;}
</style>
<g>
	<path class="st0" d="M427.5,64.6H427c-0.1,0-0.2,0-0.3,0.2l-12.6,23.6h26.5l-12.8-23.6C427.7,64.6,427.6,64.6,427.5,64.6z"/>
	<path class="st0" d="M305,9.9c-2.2,0-4.3,0.1-6.4,0.4c-26.6,3.2-47.4,25.9-47.4,53.4c0,29.6,24.1,53.8,53.8,53.8
		c2.1,0,4.2-0.1,6.3-0.4c5.1-0.6,10-1.9,14.5-3.8c0.9-3.8,1.5-9,1.2-15.7c-0.4-6.9-3.6-13.2-6.9-17.9c-0.1,0.1-0.2,0.1-0.2,0.2
		c0,0.1-0.1,0.1-0.1,0.2c-0.2,0.3-0.2,0.7-0.1,1.2c0.2,0.6,0.5,1.2,0.9,1.9c0.2,0.4,0.5,0.8,0.7,1.2c1.7,3.7,3.1,7.7,2.1,12.1
		c-1.1,4.9-4.8,8.8-9.3,9.6c-0.6,0.1-1.2,0.2-1.8,0.2c-3.3,0-6.7-1.5-9.3-4.1c-0.3-0.3-0.7-0.7-1-1c-0.2-0.2-0.3-0.4-0.5-0.6
		l-0.1,0.1c-0.2,0.2-0.4,0.4-0.5,0.5c-0.3,0.3-0.7,0.6-1,0.9c-3.6,2.7-7.9,3.6-11.6,2.4c-4.4-1.4-7.5-5.7-7.9-10.8
		c-0.4-5,2.1-9.3,4.7-12.9c0.3-0.4,0.6-0.8,0.9-1.3l0.1-0.1c0.3-0.4,0.4-0.6,0.5-0.8c-0.1,0.1-0.4,0.2-0.5,0.3
		c-0.1,0.1-0.2,0.1-0.2,0.1c-2.3,1.3-5.7,3-9.5,3.4c-1.6,0.2-3.1,0.1-4.6-0.2c-4.9-1.1-8.8-4.8-9.6-9.3c-0.2-0.9-0.2-1.8-0.1-2.7
		c0.2-3,1.7-6,4.1-8.5c0.3-0.3,0.7-0.7,1-1c0.2-0.2,0.4-0.3,0.6-0.5l-0.1-0.1c-0.2-0.2-0.4-0.4-0.5-0.5c-0.3-0.3-0.6-0.7-0.9-1
		c-2.7-3.6-3.6-7.9-2.4-11.6c1.4-4.4,5.7-7.5,10.8-7.9c3.8-0.3,7.4,0.9,11.6,3.7c0.4,0.3,0.8,0.5,1.1,0.8c0.6,0.4,1.2,0.9,1.9,1.3
		c0.1,0.1,0.3,0.2,0.4,0.3c0.7,0.6,1.1,0.8,1.4,0.5c0.2-0.2,0.1-0.5,0.1-0.6c-0.1-0.4-0.4-0.7-0.6-1.1c-0.2-0.3-0.4-0.5-0.5-0.8
		c-0.3-0.5-0.6-1-0.9-1.5c-0.2-0.3-0.4-0.6-0.5-0.9c-2.4-4.3-3.2-7.9-2.6-11.5c0.8-4.8,4.4-8.7,8.9-9.7c3.8-0.8,8,0.5,11.3,3.4
		c0.3,0.3,0.7,0.6,1,1c0.2,0.2,0.4,0.4,0.5,0.6l0.1-0.1c0.2-0.2,0.3-0.4,0.5-0.5c0.3-0.3,0.7-0.6,1-0.9c3.5-2.8,7.8-3.8,11.5-2.8
		c4.4,1.2,7.8,5.2,8.4,10.1c0.5,3.7-0.6,7.3-3.2,11.4c-0.2,0.4-0.5,0.8-0.7,1.1c-0.4,0.6-0.8,1.2-1.2,1.9c-0.1,0.1-0.2,0.3-0.3,0.4
		c-0.2,0.3-0.4,0.6-0.5,0.9c-0.1,0.3-0.1,0.6-0.1,0.7c0.1,0,0.2-0.1,0.4-0.1c0.3-0.1,0.6-0.2,0.8-0.4c0.7-0.4,1.4-0.8,2-1.2
		c0.3-0.2,0.7-0.4,1-0.6c4.3-2.6,8-3.5,11.8-3c4.7,0.6,8.7,3.8,10.1,7.9c0.1,0.2,0.1,0.4,0.2,0.6c1,3.8-0.2,8-3.1,11.5
		c-0.3,0.4-0.6,0.7-1,1c-0.2,0.2-0.4,0.4-0.6,0.5l0.1,0.1c0.2,0.2,0.4,0.3,0.6,0.5c0.3,0.3,0.6,0.6,0.9,1c3,3.4,4.2,7.6,3.3,11.4
		c-1.1,4.5-5.1,8-10.1,8.7c-2.5,0.4-5.2,0.1-7.9-0.9c-1.2-0.4-2.3-1.1-3.4-1.7l-0.8-0.5c-0.3-0.2-0.7-0.4-1-0.6
		c-0.9-0.5-1.7-1-2.6-1.3c3.1,3.4,6.1,7.4,7.4,11.1c2.4,6.6,2.4,14.5,2.2,18.7c15.2-9.5,25.3-26.4,25.3-45.5
		C358.8,34,334.7,9.9,305,9.9z"/>
	<path class="st0" d="M593.3,64.2h-31.1c-0.4,0-0.4,0.1-0.4,0.3v16.8h31.5c2.6,0,4.5-0.5,5.5-1.6c1-1.1,1.6-2.8,1.6-5.1v-3.5
		c0-2.3-0.5-4-1.6-5.1C597.8,64.7,595.9,64.2,593.3,64.2z"/>
	<path class="st0" d="M679.4,66.5c-0.7-0.8-1.8-1.3-3.1-1.7c-1.4-0.3-3.1-0.5-5.2-0.5h-24.9c-2.1,0-3.9,0.2-5.2,0.5
		c-1.3,0.3-2.3,0.9-3.1,1.7c-0.7,0.8-1.3,1.9-1.6,3.2c-0.3,1.4-0.5,3.2-0.5,5.3v12.6c0,2.1,0.2,3.9,0.5,5.3c0.3,1.4,0.9,2.4,1.6,3.2
		c0.7,0.8,1.8,1.3,3.1,1.7c1.4,0.3,3.1,0.5,5.2,0.5h24.9c2.1,0,3.9-0.2,5.2-0.5c1.3-0.3,2.3-0.9,3.1-1.7c0.7-0.8,1.3-1.8,1.6-3.2
		c0.3-1.4,0.5-3.2,0.5-5.3V75.1c0-2.1-0.2-3.9-0.5-5.3C680.7,68.4,680.1,67.3,679.4,66.5z"/>
	<path class="st0" d="M41.9,64.6h-0.5c-0.1,0-0.2,0-0.3,0.2L28.4,88.4H55L42.2,64.8C42,64.6,41.9,64.6,41.9,64.6z"/>
	<path class="st1" d="M305,119.6c-30.8,0-55.9-25.1-55.9-55.9c0-28.5,21.5-52.1,49.1-55.5l-1.4-7.6c-31.2,4.1-55.4,30.8-55.4,63.1
		c0,35.1,28.6,63.7,63.7,63.7c2.4,0,4.8-0.1,7.1-0.4l-0.7-7.7C309.4,119.5,307.2,119.6,305,119.6z"/>
	<path class="st1" d="M327.1,79.8c0.3,0.2,0.7,0.4,1,0.6l0.8,0.5c1.1,0.6,2.1,1.2,3.3,1.6c2.5,0.9,5,1.2,7.4,0.9
		c4.6-0.7,8.3-3.9,9.3-8c0.8-3.5-0.3-7.4-3.1-10.5c-0.3-0.3-0.6-0.6-0.9-0.9c-0.2-0.2-0.3-0.3-0.5-0.4c-0.3-0.2-0.6-0.4-0.6-0.8
		c0-0.3,0.1-0.5,0.3-0.7l0.1-0.1c0.2-0.2,0.4-0.4,0.6-0.6c0.3-0.3,0.6-0.6,0.9-1c2.7-3.2,3.8-7.1,2.9-10.6c-0.1-0.5-0.3-1-0.5-1.5
		c-9.4-4-19.8-1.5-29,3.6c-8.6,4.8-16.4,11-24.3,16.8c-6.1,4.5-13.3,9.2-21.2,8.6c-5.5-0.4-8.7-3-10.5-5.7c0,0.2,0,0.5,0.1,0.7
		c0.7,4.1,4.2,7.5,8.8,8.5c1.4,0.3,2.8,0.4,4.3,0.2c3.5-0.4,6.9-2,9.1-3.3c0.1,0,0.1-0.1,0.2-0.1c0.4-0.2,1-0.6,1.5-0.4
		c0.3,0.1,0.4,0.3,0.5,0.6c0.1,0.6-0.3,1.2-0.7,1.8l-0.1,0.1c-0.3,0.4-0.6,0.8-0.9,1.2c-2.4,3.5-4.8,7.7-4.5,12.3
		c0.3,4.6,3.2,8.6,7.2,9.9c3.4,1.1,7.4,0.3,10.7-2.2c0.3-0.3,0.7-0.5,1-0.8c0.2-0.2,0.3-0.3,0.5-0.5c0.2-0.2,0.4-0.5,0.8-0.5
		c0.3,0,0.5,0.1,0.7,0.4c0.2,0.3,0.4,0.5,0.6,0.8c0.3,0.3,0.6,0.7,0.9,1c2.9,2.9,6.8,4.3,10.3,3.7c4.1-0.7,7.5-4.2,8.5-8.8
		c0.9-4.1-0.5-8-2.1-11.5c-0.2-0.4-0.4-0.8-0.6-1.1c-0.4-0.7-0.8-1.3-1-2.1c-0.2-0.7-0.1-1.4,0.2-2c0.1-0.1,0.1-0.2,0.2-0.3l0,0
		c0.1-0.2,0.3-0.3,0.4-0.4c-2.5-3.5-5-6-6.2-7.1c-0.4-0.3-0.4-0.9,0-1.3c0.3-0.3,0.8-0.3,1.2,0c1.3,1.1,4.8,4,8.3,7.6
		c0.4,0,0.9,0.1,1.2,0.2C325.1,78.7,326.1,79.3,327.1,79.8z"/>
	<path class="st1" d="M266.5,61.8c0.3-0.3,0.7-0.6,1-0.9c0.2-0.2,0.5-0.4,0.8-0.6c0.1-0.1,0.2-0.1,0.2-0.3c0-0.2-0.2-0.3-0.4-0.5
		c-0.2-0.2-0.3-0.3-0.5-0.5c-0.3-0.3-0.6-0.7-0.8-1c-2.4-3.2-3.6-7.4-2.3-11.2c1.4-4.4,5.7-7.2,10.3-7.6c4.2-0.3,7.9,1.3,11.2,3.6
		c1,0.7,2,1.4,3,2.1c0.7,0.4,1.7,1.5,2.5,0.8c0.4-0.3,0.4-0.8,0.2-1.2c-0.3-0.7-0.8-1.3-1.1-2c-0.4-0.9-1-1.7-1.4-2.5
		c-2-3.5-3.3-7.2-2.6-11.2c0.8-4.4,4-8.3,8.5-9.3c3.9-0.8,8,0.7,10.9,3.3c0.3,0.3,0.7,0.6,1,0.9c0.2,0.2,0.4,0.5,0.6,0.7
		c0.1,0.1,0.2,0.2,0.3,0.1c0.2,0,0.3-0.2,0.4-0.4c0.2-0.2,0.3-0.4,0.5-0.5c0.3-0.3,0.6-0.6,1-0.8c3.1-2.5,7.2-3.8,11.1-2.7
		c4.4,1.2,7.5,5.2,8,9.7c0.5,4-1,7.7-3.1,11.1c-0.6,1-1.3,2-1.9,3c-0.3,0.5-0.6,0.9-0.9,1.4c-0.2,0.4-0.3,1.3,0.3,1.4
		c0.3,0.1,0.5-0.1,0.8-0.2c0.3-0.1,0.5-0.2,0.8-0.4c1.1-0.5,2-1.2,3.1-1.8c3.5-2.1,7.3-3.5,11.4-2.9c4.2,0.6,8,3.2,9.5,7.1
		c0.2,0.1,0.4,0.2,0.6,0.3c-1.4-4.1-5.3-7.3-10.1-7.9c-3.7-0.5-7.5,0.4-11.8,3c-0.3,0.2-0.7,0.4-1,0.6c-0.7,0.4-1.3,0.8-2,1.2
		c-0.2,0.1-0.5,0.2-0.8,0.4c-0.1,0.1-0.3,0.1-0.4,0.1c-0.1-0.1-0.1-0.4,0.1-0.7c0.1-0.3,0.3-0.6,0.5-0.9c0.1-0.1,0.2-0.3,0.3-0.4
		c0.4-0.6,0.8-1.3,1.2-1.9c0.2-0.4,0.5-0.8,0.7-1.1c2.6-4.1,3.6-7.8,3.2-11.4c-0.6-4.9-4-8.9-8.4-10.1c-3.7-1-8,0.1-11.5,2.8
		c-0.3,0.3-0.7,0.6-1,0.9c-0.2,0.2-0.4,0.4-0.5,0.5l-0.1,0.1c-0.2-0.2-0.3-0.4-0.5-0.6c-0.3-0.3-0.7-0.7-1-1
		c-3.3-2.9-7.6-4.2-11.3-3.4c-4.5,1-8,4.9-8.9,9.7c-0.6,3.6,0.2,7.3,2.6,11.5c0.2,0.3,0.4,0.6,0.5,0.9c0.3,0.5,0.6,1,0.9,1.5
		c0.1,0.3,0.3,0.5,0.5,0.8c0.2,0.4,0.5,0.7,0.6,1.1c0,0.1,0.1,0.4-0.1,0.6c-0.3,0.3-0.7,0.1-1.4-0.5c-0.2-0.1-0.3-0.2-0.4-0.3
		c-0.6-0.4-1.2-0.8-1.9-1.3c-0.4-0.3-0.8-0.5-1.1-0.8c-4.1-2.8-7.8-4-11.6-3.7c-5,0.4-9.3,3.5-10.8,7.9c-1.2,3.7-0.3,8,2.4,11.6
		c0.3,0.4,0.6,0.7,0.9,1c0.2,0.2,0.4,0.4,0.5,0.5l0.1,0.1c-0.2,0.2-0.4,0.3-0.6,0.5c-0.4,0.3-0.7,0.6-1,1c-2.4,2.4-3.9,5.5-4.1,8.5
		c0.1,0.3,0.3,0.6,0.5,0.9C262.5,67.4,264.1,64.1,266.5,61.8z"/>
	<path class="st1" d="M327.6,81.3l0.8,0.5c1.1,0.6,2.2,1.2,3.4,1.7c2.7,1,5.3,1.3,7.9,0.9c5-0.8,9-4.3,10.1-8.7
		c0.9-3.8-0.3-8-3.3-11.4c-0.3-0.3-0.6-0.7-0.9-1c-0.2-0.2-0.4-0.3-0.6-0.5l-0.1-0.1c0.2-0.2,0.4-0.3,0.6-0.5c0.3-0.3,0.7-0.7,1-1
		c2.9-3.4,4.1-7.7,3.1-11.5c-0.1-0.2-0.1-0.4-0.2-0.6c-0.2-0.1-0.4-0.2-0.6-0.3c0.1,0.3,0.3,0.7,0.3,1.1c1,3.9-0.4,8-3,11
		c-0.3,0.3-0.6,0.7-0.9,1c-0.2,0.2-0.5,0.4-0.7,0.6c-0.1,0.1-0.2,0.2-0.1,0.3c0,0.2,0.3,0.3,0.4,0.4c0.2,0.2,0.4,0.3,0.5,0.5
		c0.3,0.3,0.6,0.6,0.9,0.9c2.6,3,4.1,7.1,3.2,11c-1.1,4.5-5.1,7.6-9.7,8.3c-2.6,0.4-5.2,0-7.6-0.9c-1.5-0.5-2.8-1.3-4.2-2.1
		c-1.3-0.7-2.5-1.5-3.9-2c-0.2-0.1-0.4-0.1-0.6-0.1c0.2,0.2,0.4,0.5,0.6,0.7c0.9,0.3,1.7,0.8,2.6,1.3
		C326.9,80.9,327.2,81.1,327.6,81.3z"/>
	<path class="st1" d="M319.4,79.9c-0.3,0.5-0.3,1.1-0.1,1.6c0.3,1.1,1.1,2.1,1.6,3.2c1.7,3.8,3,7.6,2.1,11.8c-1,4.5-4.4,8.4-8.9,9.2
		c-3.9,0.7-7.9-1.1-10.7-3.9c-0.3-0.3-0.6-0.7-0.9-1c-0.2-0.2-0.4-0.5-0.6-0.8c-0.1-0.1-0.1-0.2-0.3-0.2c-0.2,0-0.3,0.2-0.5,0.4
		c-0.2,0.2-0.3,0.3-0.5,0.5c-0.3,0.3-0.7,0.6-1,0.8c-3.2,2.4-7.4,3.6-11.2,2.3c-4.4-1.4-7.2-5.7-7.6-10.3c-0.3-4.7,2-8.9,4.6-12.6
		c0.3-0.4,0.6-0.8,0.9-1.2c0.2-0.3,1.2-1.4,0.5-1.7c-0.4-0.2-1,0.3-1.3,0.5c-2.9,1.6-6,3-9.3,3.3c-1.5,0.2-3,0.1-4.4-0.2
		c-4.5-1-8.4-4.4-9.2-8.9c-0.1-0.6-0.1-1.2-0.1-1.7c-0.2-0.3-0.3-0.6-0.5-0.9c-0.1,0.9,0,1.8,0.1,2.7c0.8,4.5,4.6,8.3,9.6,9.3
		c1.5,0.3,3,0.4,4.6,0.2c3.7-0.4,7.2-2.1,9.5-3.4c0.1,0,0.2-0.1,0.2-0.1c0.1-0.1,0.3-0.2,0.5-0.3c-0.1,0.1-0.2,0.4-0.5,0.8l-0.1,0.1
		c-0.3,0.4-0.6,0.8-0.9,1.3c-2.5,3.6-5,8-4.7,12.9c0.4,5,3.5,9.3,7.9,10.8c3.7,1.2,8,0.3,11.6-2.4c0.4-0.3,0.7-0.6,1-0.9
		c0.2-0.2,0.4-0.4,0.5-0.5l0.1-0.1c0.2,0.2,0.3,0.4,0.5,0.6c0.3,0.4,0.6,0.7,1,1c2.7,2.7,6.1,4.1,9.3,4.1c0.6,0,1.2-0.1,1.8-0.2
		c4.5-0.8,8.3-4.6,9.3-9.6c0.9-4.4-0.5-8.4-2.1-12.1c-0.2-0.4-0.4-0.8-0.7-1.2c-0.4-0.6-0.7-1.2-0.9-1.9c-0.1-0.5-0.1-0.9,0.1-1.2
		c0-0.1,0.1-0.1,0.1-0.2c0.1-0.1,0.1-0.1,0.2-0.2c-0.1-0.1-0.2-0.3-0.3-0.4c-0.1,0.1-0.2,0.2-0.3,0.3
		C319.4,79.7,319.4,79.8,319.4,79.9z"/>
	<path class="st1" d="M339.2,41.6c-4.2-0.6-8,0.9-11.4,2.9c-1,0.6-2,1.3-3.1,1.8c-0.3,0.1-0.5,0.3-0.8,0.4c-0.2,0.1-0.5,0.2-0.8,0.2
		c-0.5-0.1-0.4-1-0.3-1.4c0.2-0.5,0.6-1,0.9-1.4c0.6-1,1.3-2,1.9-3c2.1-3.4,3.6-7,3.1-11.1c-0.6-4.5-3.6-8.5-8-9.7
		c-3.9-1-8,0.3-11.1,2.7c-0.3,0.3-0.7,0.6-1,0.8c-0.2,0.2-0.3,0.3-0.5,0.5c-0.1,0.1-0.3,0.4-0.4,0.4c-0.1,0-0.2-0.1-0.3-0.1
		c-0.2-0.3-0.4-0.5-0.6-0.7c-0.3-0.3-0.6-0.6-1-0.9c-2.9-2.6-7-4.1-10.9-3.3c-4.5,1-7.7,4.8-8.5,9.3c-0.7,4,0.6,7.8,2.6,11.2
		c0.5,0.8,1,1.7,1.4,2.5c0.4,0.7,0.9,1.3,1.1,2c0.2,0.4,0.1,0.9-0.2,1.2c-0.8,0.7-1.8-0.4-2.5-0.8c-1-0.7-2-1.4-3-2.1
		c-3.4-2.3-7.1-3.9-11.2-3.6c-4.6,0.3-8.9,3.2-10.3,7.6c-1.2,3.8-0.1,8,2.3,11.2c0.3,0.3,0.5,0.7,0.8,1c0.2,0.2,0.3,0.4,0.5,0.5
		c0.1,0.1,0.4,0.3,0.4,0.5c0,0.1-0.1,0.2-0.2,0.3c-0.3,0.2-0.5,0.4-0.8,0.6c-0.3,0.3-0.7,0.6-1,0.9c-2.4,2.4-4,5.7-4,9
		c0.2,0.3,0.4,0.6,0.6,0.9c-0.3-3.3,1.1-6.8,3.8-9.6c0.3-0.3,0.6-0.6,1-0.9c0.2-0.2,0.4-0.3,0.7-0.5l0.1-0.1
		c0.2-0.2,0.4-0.4,0.4-0.7c0-0.4-0.3-0.6-0.5-0.8c-0.2-0.2-0.3-0.3-0.5-0.5c-0.3-0.3-0.6-0.6-0.8-1c-2.5-3.3-3.3-7.3-2.2-10.7
		c1.3-4,5.3-6.9,9.9-7.2c3.5-0.3,7,0.9,10.9,3.5c0.4,0.3,0.8,0.5,1.1,0.8c0.6,0.4,1.2,0.9,1.9,1.3c0.1,0.1,0.2,0.2,0.4,0.3
		c0.6,0.5,1.7,1.3,2.7,0.5c0.5-0.4,0.6-1.1,0.4-1.7c-0.2-0.5-0.5-0.9-0.7-1.3c-0.2-0.2-0.3-0.5-0.5-0.7c-0.3-0.5-0.6-1.1-0.9-1.6
		c-0.2-0.3-0.4-0.6-0.5-0.9c-2.3-4-3.1-7.5-2.5-10.9c0.8-4.4,4-8,8.1-8.9c3.5-0.7,7.4,0.4,10.5,3.2c0.3,0.3,0.6,0.6,0.9,0.9
		c0.2,0.2,0.4,0.4,0.6,0.7c0.2,0.2,0.4,0.3,0.7,0.3c0.4,0,0.6-0.3,0.8-0.5c0.2-0.2,0.3-0.3,0.5-0.5c0.3-0.3,0.6-0.6,0.9-0.8
		c3.2-2.6,7.2-3.6,10.6-2.6c4,1.1,7.1,4.8,7.7,9.3c0.4,3.4-0.5,6.8-3,10.7c-0.2,0.4-0.5,0.7-0.7,1.1c-0.4,0.6-0.8,1.3-1.2,1.9
		c-0.1,0.1-0.2,0.3-0.3,0.4c-0.2,0.3-0.5,0.7-0.6,1.1c-0.1,0.3-0.3,1,0,1.5c0.1,0.3,0.4,0.4,0.6,0.5c0.4,0.1,0.7,0,1.1-0.2
		c0.3-0.1,0.6-0.2,0.8-0.4c0.7-0.4,1.4-0.8,2.1-1.2c0.3-0.2,0.7-0.4,1-0.6c4.1-2.4,7.6-3.3,11.1-2.9c4,0.5,7.4,3,8.9,6.3
		c0.2,0.1,0.4,0.2,0.7,0.3C347.3,44.8,343.5,42.1,339.2,41.6z"/>
	<path class="st1" d="M327.8,80.8c1.4,0.7,2.7,1.5,4.2,2.1c2.4,0.9,5,1.3,7.6,0.9c4.6-0.7,8.6-3.9,9.7-8.3c0.9-3.9-0.6-8-3.2-11
		c-0.3-0.3-0.6-0.6-0.9-0.9c-0.2-0.2-0.4-0.3-0.5-0.5c-0.1-0.1-0.4-0.2-0.4-0.4c0-0.1,0.1-0.2,0.1-0.3c0.3-0.2,0.5-0.4,0.7-0.6
		c0.3-0.3,0.6-0.7,0.9-1c2.6-3,4-7.1,3-11c-0.1-0.4-0.2-0.7-0.3-1.1c-0.2-0.1-0.4-0.2-0.7-0.3c0.2,0.5,0.4,1,0.5,1.5
		c0.9,3.5-0.2,7.4-2.9,10.6c-0.3,0.3-0.6,0.7-0.9,1c-0.2,0.2-0.4,0.4-0.6,0.6l-0.1,0.1c-0.2,0.2-0.3,0.4-0.3,0.7
		c0,0.4,0.3,0.6,0.6,0.8c0.2,0.1,0.3,0.3,0.5,0.4c0.3,0.3,0.6,0.6,0.9,0.9c2.8,3.1,3.9,7,3.1,10.5c-1,4.1-4.7,7.3-9.3,8
		c-2.3,0.4-4.8,0.1-7.4-0.9c-1.1-0.4-2.2-1-3.3-1.6l-0.8-0.5c-0.3-0.2-0.7-0.4-1-0.6c-0.9-0.5-1.9-1.1-3-1.4
		c-0.4-0.1-0.8-0.2-1.2-0.2c0.2,0.2,0.4,0.4,0.5,0.6c0.2,0,0.4,0.1,0.6,0.1C325.3,79.3,326.5,80.1,327.8,80.8z"/>
	<path class="st1" d="M319.1,79.3c-0.1,0.1-0.1,0.2-0.2,0.3c-0.3,0.5-0.4,1.2-0.2,2c0.2,0.8,0.6,1.4,1,2.1c0.2,0.4,0.4,0.8,0.6,1.1
		c1.6,3.5,3,7.3,2.1,11.5c-1,4.5-4.4,8.1-8.5,8.8c-3.5,0.6-7.4-0.8-10.3-3.7c-0.3-0.3-0.6-0.6-0.9-1c-0.2-0.2-0.3-0.4-0.6-0.8
		c-0.2-0.2-0.4-0.4-0.7-0.4c-0.4,0-0.6,0.3-0.8,0.5c-0.2,0.2-0.3,0.3-0.5,0.5c-0.3,0.3-0.6,0.6-1,0.8c-3.3,2.5-7.3,3.3-10.7,2.2
		c-4-1.3-6.9-5.3-7.2-9.9c-0.3-4.6,2.1-8.8,4.5-12.3c0.3-0.4,0.6-0.8,0.9-1.2l0.1-0.1c0.4-0.6,0.9-1.2,0.7-1.8
		c-0.1-0.3-0.2-0.5-0.5-0.6c-0.5-0.2-1.1,0.1-1.5,0.4c-0.1,0-0.1,0.1-0.2,0.1c-2.2,1.2-5.5,2.9-9.1,3.3c-1.5,0.1-2.9,0.1-4.3-0.2
		c-4.5-1-8.1-4.4-8.8-8.5c0-0.2-0.1-0.5-0.1-0.7c-0.2-0.3-0.4-0.6-0.6-0.9c0,0.6,0,1.2,0.1,1.7c0.8,4.5,4.6,7.9,9.2,8.9
		c1.5,0.3,2.9,0.4,4.4,0.2c3.3-0.3,6.4-1.7,9.3-3.3c0.3-0.2,0.9-0.7,1.3-0.5c0.7,0.3-0.3,1.4-0.5,1.7c-0.3,0.4-0.6,0.8-0.9,1.2
		c-2.6,3.7-4.9,8-4.6,12.6c0.3,4.6,3.2,8.9,7.6,10.3c3.8,1.2,8,0.1,11.2-2.3c0.3-0.3,0.7-0.5,1-0.8c0.2-0.2,0.4-0.3,0.5-0.5
		c0.1-0.1,0.3-0.4,0.5-0.4c0.1,0,0.2,0.1,0.3,0.2c0.2,0.3,0.4,0.5,0.6,0.8c0.3,0.3,0.6,0.7,0.9,1c2.8,2.8,6.8,4.5,10.7,3.9
		c4.5-0.8,7.9-4.6,8.9-9.2c0.9-4.2-0.4-8-2.1-11.8c-0.5-1.1-1.3-2-1.6-3.2c-0.1-0.5-0.1-1.1,0.1-1.6c0-0.1,0.1-0.1,0.1-0.2
		c0.1-0.1,0.2-0.2,0.3-0.3c-0.1-0.1-0.2-0.3-0.3-0.4C319.4,79,319.2,79.2,319.1,79.3L319.1,79.3z"/>
	<path class="st2" d="M265.7,74.3c-1.7-7.4,5.2-13.8,5.2-13.8C260,65.9,265.7,74.3,265.7,74.3z"/>
	<g>
		<path class="st0" d="M41.9,64.6h-0.5c-0.1,0-0.2,0-0.3,0.2L28.4,88.4H55L42.2,64.8C42,64.6,41.9,64.6,41.9,64.6z"/>
		<path class="st0" d="M265.7,74.3c-1.7-7.4,5.2-13.8,5.2-13.8C260,65.9,265.7,74.3,265.7,74.3z"/>
		<path class="st0" d="M305,9.9c-2.2,0-4.3,0.1-6.4,0.4c-26.6,3.2-47.4,25.9-47.4,53.4c0,29.6,24.1,53.8,53.8,53.8
			c2.1,0,4.2-0.1,6.3-0.4c5.1-0.6,10-1.9,14.5-3.8c0.9-3.8,1.5-9,1.2-15.7c-0.4-6.9-3.6-13.2-6.9-17.9c-0.1-0.1-0.2-0.3-0.3-0.4
			c-0.1-0.1-0.2-0.3-0.3-0.4c-2.5-3.5-5-6-6.2-7.1c-0.4-0.3-0.4-0.9,0-1.3c0.3-0.3,0.8-0.3,1.2,0c1.3,1.1,4.8,4,8.3,7.6
			c0.2,0.2,0.4,0.4,0.5,0.6c0.2,0.2,0.4,0.5,0.6,0.7c3.1,3.4,6.1,7.4,7.4,11.1c2.4,6.6,2.4,14.5,2.2,18.7
			c15.2-9.5,25.3-26.4,25.3-45.5C358.8,34,334.7,9.9,305,9.9z M319.1,52c-8.6,4.8-16.4,11-24.3,16.8c-6.1,4.5-13.3,9.2-21.2,8.6
			c-5.5-0.4-8.7-3-10.5-5.7c-0.3-3.3,1.1-6.8,3.8-9.6c0.3-0.3,0.6-0.6,1-0.9c0.2-0.2,0.4-0.3,0.7-0.5l0.1-0.1
			c0.2-0.2,0.4-0.4,0.4-0.7c0-0.4-0.3-0.6-0.5-0.8c-0.2-0.2-0.3-0.3-0.5-0.5c-0.3-0.3-0.6-0.6-0.8-1c-2.5-3.3-3.3-7.3-2.2-10.7
			c1.3-4,5.3-6.9,9.9-7.2c3.5-0.3,7,0.9,10.9,3.5c0.4,0.3,0.8,0.5,1.1,0.8c0.6,0.4,1.2,0.9,1.9,1.3c0.1,0.1,0.2,0.2,0.4,0.3
			c0.6,0.5,1.7,1.3,2.7,0.5c0.5-0.4,0.6-1.1,0.4-1.7c-0.2-0.5-0.5-0.9-0.7-1.3c-0.2-0.2-0.3-0.5-0.5-0.7c-0.3-0.5-0.6-1.1-0.9-1.6
			c-0.2-0.3-0.4-0.6-0.5-0.9c-2.3-4-3.1-7.5-2.5-10.9c0.8-4.4,4-8,8.1-8.9c3.5-0.7,7.4,0.4,10.5,3.2c0.3,0.3,0.6,0.6,0.9,0.9
			c0.2,0.2,0.4,0.4,0.6,0.7c0.2,0.2,0.4,0.3,0.7,0.3c0.4,0,0.6-0.3,0.8-0.5c0.2-0.2,0.3-0.3,0.5-0.5c0.3-0.3,0.6-0.6,0.9-0.8
			c3.2-2.6,7.2-3.6,10.6-2.6c4,1.1,7.1,4.8,7.7,9.3c0.4,3.4-0.5,6.8-3,10.7c-0.2,0.4-0.5,0.7-0.7,1.1c-0.4,0.6-0.8,1.3-1.2,1.9
			c-0.1,0.1-0.2,0.3-0.3,0.4c-0.2,0.3-0.5,0.7-0.6,1.1c-0.1,0.3-0.3,1,0,1.5c0.1,0.3,0.4,0.4,0.6,0.5c0.4,0.1,0.7,0,1.1-0.2
			c0.3-0.1,0.6-0.2,0.8-0.4c0.7-0.4,1.4-0.8,2.1-1.2c0.3-0.2,0.7-0.4,1-0.6c4.1-2.4,7.6-3.3,11.1-2.9c4,0.5,7.4,3,8.9,6.3
			C338.7,44.3,328.2,46.9,319.1,52z"/>
		<path class="st3" d="M305,0c-2.8,0-5.5,0.2-8.2,0.6l1.4,7.6c-27.6,3.4-49.1,27-49.1,55.5c0,30.8,25.1,55.9,55.9,55.9
			c2.2,0,4.3-0.1,6.5-0.4l0.7,7.7c31.8-3.6,56.6-30.6,56.6-63.3C368.7,28.6,340.1,0,305,0z M333.5,109.2c0.2-4.2,0.2-12.1-2.2-18.7
			c-1.3-3.7-4.3-7.7-7.4-11.1c-0.2-0.2-0.4-0.5-0.6-0.7c-0.2-0.2-0.4-0.4-0.5-0.6c-3.5-3.6-6.9-6.5-8.3-7.6c-0.3-0.3-0.8-0.3-1.2,0
			c-0.4,0.3-0.4,0.9,0,1.3c1.2,1.1,3.6,3.6,6.2,7.1c0.1,0.1,0.2,0.3,0.3,0.4c0.1,0.1,0.2,0.3,0.3,0.4c3.3,4.7,6.5,10.9,6.9,17.9
			c0.4,6.7-0.3,11.9-1.2,15.7c-4.6,1.9-9.4,3.2-14.5,3.8c-2.1,0.2-4.2,0.4-6.3,0.4c-29.6,0-53.8-24.1-53.8-53.8
			c0-27.5,20.7-50.2,47.4-53.4c2.1-0.3,4.2-0.4,6.4-0.4c29.6,0,53.8,24.1,53.8,53.8C358.8,82.9,348.7,99.7,333.5,109.2z"/>
		<path class="st3" d="M339.2,42.1c-3.5-0.5-7,0.4-11.1,2.9c-0.3,0.2-0.7,0.4-1,0.6c-0.7,0.4-1.4,0.9-2.1,1.2
			c-0.3,0.1-0.5,0.3-0.8,0.4c-0.3,0.1-0.7,0.3-1.1,0.2c-0.3-0.1-0.5-0.3-0.6-0.5c-0.3-0.5-0.1-1.2,0-1.5c0.2-0.4,0.4-0.8,0.6-1.1
			c0.1-0.1,0.2-0.3,0.3-0.4c0.4-0.6,0.8-1.3,1.2-1.9c0.2-0.4,0.5-0.7,0.7-1.1c2.5-3.9,3.5-7.3,3-10.7c-0.6-4.5-3.6-8.2-7.7-9.3
			c-3.4-0.9-7.4,0.1-10.6,2.6c-0.3,0.3-0.6,0.5-0.9,0.8c-0.2,0.2-0.3,0.3-0.5,0.5c-0.2,0.2-0.4,0.5-0.8,0.5c-0.3,0-0.5-0.1-0.7-0.3
			c-0.2-0.3-0.4-0.5-0.6-0.7c-0.3-0.3-0.6-0.6-0.9-0.9c-3.1-2.7-7-3.9-10.5-3.2c-4.1,0.9-7.3,4.4-8.1,8.9c-0.6,3.4,0.2,6.8,2.5,10.9
			c0.2,0.3,0.4,0.6,0.5,0.9c0.3,0.5,0.6,1.1,0.9,1.6c0.1,0.3,0.3,0.5,0.5,0.7c0.3,0.4,0.5,0.8,0.7,1.3c0.2,0.7,0.1,1.3-0.4,1.7
			c-1,0.8-2.1,0-2.7-0.5c-0.1-0.1-0.3-0.2-0.4-0.3c-0.6-0.4-1.3-0.9-1.9-1.3c-0.4-0.3-0.8-0.5-1.1-0.8c-3.9-2.7-7.4-3.8-10.9-3.5
			c-4.6,0.3-8.6,3.2-9.9,7.2c-1.1,3.4-0.3,7.4,2.2,10.7c0.3,0.3,0.5,0.7,0.8,1c0.2,0.2,0.3,0.3,0.5,0.5c0.2,0.2,0.5,0.4,0.5,0.8
			c0,0.3-0.1,0.5-0.4,0.7l-0.1,0.1c-0.2,0.2-0.5,0.3-0.7,0.5c-0.3,0.3-0.7,0.6-1,0.9c-2.7,2.7-4.1,6.3-3.8,9.6
			c1.9,2.8,5.1,5.3,10.5,5.7c7.9,0.6,15.1-4.1,21.2-8.6c7.9-5.8,15.7-12,24.3-16.8c9.2-5,19.6-7.6,29-3.6
			C346.6,45.1,343.2,42.6,339.2,42.1z M265.7,74.3c0,0-5.7-8.4,5.2-13.8C270.9,60.5,263.9,66.9,265.7,74.3z"/>
		<path class="st3" d="M53.8,58c-1.5-2.7-3-4.4-4.5-5.3c-1.6-0.9-3.5-1.4-5.7-1.4h-5c-1.9,0-3.6,0.5-5.1,1.4
			c-1.5,0.9-2.9,2.7-4.4,5.3L1.6,108.5c-0.4,0.7-0.5,1.4-0.2,2c0.3,0.7,0.9,1,2,1h10.9c1.2,0,2-0.5,2.6-1.5l5.6-10.5H61l5.7,10.4
			c0.3,0.7,1,1.5,2.6,1.5H80c1.2,0,1.7-0.5,1.9-1c0.2-0.6,0.1-1.2-0.3-2L53.8,58z M28.4,88.4l12.6-23.6c0.1-0.2,0.2-0.2,0.3-0.2h0.5
			c0.1,0,0.2,0,0.3,0.2L55,88.4H28.4z"/>
		<path class="st3" d="M142.7,98.1h-34c-2.1,0-3.9-0.2-5.2-0.5c-1.3-0.3-2.3-0.9-3.1-1.7c-0.7-0.8-1.3-1.8-1.6-3.2
			c-0.3-1.4-0.5-3.2-0.5-5.4V53.8c0-1.6-0.9-2.6-2.6-2.6h-9.1c-1.7,0-2.6,0.9-2.6,2.6v34.8c0,4.1,0.4,7.6,1.3,10.5
			c0.9,2.9,2.4,5.4,4.3,7.2c2,1.8,4.5,3.2,7.6,4c3,0.8,6.7,1.2,11,1.2h34.5c1.6,0,2.6-0.9,2.6-2.6v-8.2
			C145.2,99.1,144.3,98.1,142.7,98.1z"/>
		<path class="st3" d="M208.8,98.1h-34c-2.1,0-3.9-0.2-5.2-0.5c-1.3-0.3-2.3-0.9-3.1-1.7c-0.7-0.8-1.3-1.8-1.6-3.2
			c-0.3-1.4-0.5-3.2-0.5-5.4V53.8c0-1.6-0.9-2.6-2.6-2.6h-9.1c-1.7,0-2.6,0.9-2.6,2.6v34.8c0,4.1,0.4,7.6,1.3,10.5
			c0.9,2.9,2.4,5.4,4.3,7.2c2,1.8,4.5,3.2,7.6,4c3,0.8,6.7,1.2,11,1.2h34.5c1.6,0,2.6-0.9,2.6-2.6v-8.2
			C211.3,99.1,210.4,98.1,208.8,98.1z"/>
	</g>
	<path class="st1" d="M465.7,110c0.4,0,0.6-0.1,0.6-0.1c0.1-0.2,0-0.5-0.2-0.8l-27.8-50.5c-1.3-2.4-2.7-4-4-4.8
		c-1.3-0.8-3-1.2-5-1.2h-5c-1.6,0-3.1,0.4-4.3,1.2c-1.2,0.8-2.5,2.4-3.9,4.8l-27.5,50.5c-0.2,0.3-0.2,0.6-0.2,0.8
		c0,0,0.1,0.1,0.6,0.1h10.9c0.6,0,1-0.2,1.3-0.7l6-11.2h40.3l6.2,11.2c0.2,0.4,0.4,0.7,1.3,0.7H465.7z M411.7,89.8l13.7-25.7
		c0.4-0.6,0.9-1,1.5-1h0.5c0.6,0,1.2,0.3,1.5,0.9L443,89.8H411.7z"/>
	<path class="st1" d="M439.5,58c-1.5-2.7-3-4.4-4.5-5.3c-1.6-0.9-3.5-1.4-5.7-1.4h-5c-1.9,0-3.6,0.5-5.1,1.4
		c-1.5,0.9-2.9,2.7-4.4,5.3l-27.6,50.5c-0.4,0.7-0.5,1.4-0.2,2c0.3,0.7,0.9,1,2,1h10.9c1.2,0,2-0.5,2.6-1.5l5.6-10.5h38.6l5.7,10.4
		c0.3,0.7,1,1.5,2.6,1.5h10.7c1.2,0,1.7-0.5,1.9-1c0.2-0.6,0.1-1.2-0.3-2L439.5,58z M453.7,109.3l-6.2-11.2h-40.3l-6,11.2
		c-0.3,0.5-0.7,0.7-1.3,0.7H389c-0.5,0-0.6-0.1-0.6-0.1c-0.1-0.2,0-0.5,0.2-0.8l27.5-50.5c1.3-2.4,2.6-4,3.9-4.8
		c1.2-0.8,2.7-1.2,4.3-1.2h5c2,0,3.7,0.4,5,1.2c1.3,0.8,2.7,2.4,4,4.8l27.8,50.5c0.2,0.4,0.2,0.7,0.2,0.8c0,0-0.1,0.1-0.6,0.1H455
		C454.1,110,453.9,109.7,453.7,109.3z"/>
	<path class="st1" d="M427.5,63.2H427c-0.6,0-1.2,0.3-1.5,1l-13.7,25.7H443l-13.9-25.7C428.7,63.5,428.2,63.2,427.5,63.2z
		 M414.1,88.4l12.6-23.6c0.1-0.2,0.2-0.2,0.3-0.2h0.5c0.1,0,0.2,0,0.3,0.2l12.8,23.6H414.1z"/>
	<path class="st1" d="M535.9,52.7h-42.6c-4.2,0-7.8,0.4-10.6,1.2c-2.8,0.8-5.2,2-7,3.7c-1.8,1.7-3.1,3.9-3.9,6.5
		c-0.8,2.7-1.3,6.1-1.3,10v14.4c0,3.9,0.4,7.3,1.3,10.1c0.8,2.7,2.1,4.9,3.9,6.6c1.8,1.7,4.1,2.9,7,3.7c2.9,0.8,6.5,1.2,10.7,1.2
		h33.9c3.1,0,5.6-0.9,7.2-2.7c1.7-1.8,2.5-5,2.5-9.5V78.3c0-1.3-0.5-1.8-1.8-1.8h-35c-0.7,0-1.1,0.2-1.1,1.2V84c0,1,0.4,1.2,1.1,1.2
		h24.6c1.1,0,1.7,0.7,1.7,1.8v6.8c0,2.1-0.4,3.6-1.2,4.5c-0.8,0.9-2.1,1.4-3.7,1.4h-27.7c-2.2,0-4.1-0.2-5.6-0.6
		c-1.6-0.4-2.8-1.1-3.7-2c-0.9-1-1.6-2.3-2-3.9c-0.4-1.5-0.6-3.5-0.6-5.8V75.4c0-2.3,0.2-4.2,0.6-5.7c0.4-1.6,1.1-2.9,2-3.8
		c0.9-1,2.2-1.6,3.7-2c1.5-0.4,3.4-0.6,5.6-0.6h42.1c0.7,0,1.1-0.2,1.1-1.2v-8.2C537,53,536.7,52.7,535.9,52.7z"/>
	<path class="st1" d="M535.9,51.3h-42.6c-4.3,0-8,0.4-11,1.2c-3.1,0.8-5.6,2.2-7.6,4c-2,1.8-3.4,4.2-4.3,7.2
		c-0.9,2.9-1.3,6.4-1.3,10.5v14.4c0,4.1,0.4,7.6,1.3,10.5c0.9,2.9,2.4,5.4,4.3,7.2c2,1.8,4.5,3.2,7.6,4c3,0.8,6.7,1.2,11,1.2h33.9
		c3.5,0,6.3-1.1,8.2-3.1c1.9-2.1,2.9-5.6,2.9-10.4V78.3c0-2.1-1.1-3.2-3.2-3.2h-35c-1.6,0-2.6,1-2.6,2.6V84c0,1.7,0.9,2.6,2.6,2.6
		h24.6c0.2,0,0.3,0,0.3,0.4v6.8c0,1.7-0.3,2.9-0.8,3.5c-0.5,0.6-1.4,0.9-2.7,0.9h-27.7c-2.1,0-3.9-0.2-5.2-0.5
		c-1.3-0.3-2.3-0.9-3.1-1.7c-0.7-0.8-1.3-1.8-1.6-3.2c-0.3-1.4-0.5-3.2-0.5-5.4V75.4c0-2.2,0.2-4,0.5-5.4c0.3-1.3,0.9-2.4,1.6-3.2
		c0.7-0.8,1.8-1.3,3.1-1.7c1.4-0.3,3.1-0.5,5.2-0.5h42.1c1.6,0,2.6-1,2.6-2.6v-8.2C538.5,52.2,537.5,51.3,535.9,51.3z M537,62
		c0,1-0.4,1.2-1.1,1.2h-42.1c-2.2,0-4.1,0.2-5.6,0.6c-1.6,0.4-2.8,1.1-3.7,2c-0.9,1-1.6,2.2-2,3.8c-0.4,1.5-0.6,3.4-0.6,5.7v12.1
		c0,2.3,0.2,4.2,0.6,5.8c0.4,1.6,1.1,2.9,2,3.9c0.9,1,2.2,1.6,3.7,2c1.5,0.4,3.4,0.6,5.6,0.6h27.7c1.7,0,2.9-0.5,3.7-1.4
		c0.8-0.9,1.2-2.4,1.2-4.5v-6.8c0-1.1-0.7-1.8-1.7-1.8h-24.6c-0.7,0-1.1-0.2-1.1-1.2v-6.3c0-1,0.4-1.2,1.1-1.2h35
		c1.3,0,1.8,0.5,1.8,1.8v19.6c0,4.5-0.8,7.7-2.5,9.5c-1.6,1.8-4.1,2.7-7.2,2.7h-33.9c-4.2,0-7.8-0.4-10.7-1.2c-2.8-0.7-5.2-2-7-3.7
		c-1.8-1.7-3.1-3.9-3.9-6.6c-0.8-2.7-1.3-6.1-1.3-10.1V74.1c0-3.9,0.4-7.3,1.3-10c0.8-2.7,2.1-4.9,3.9-6.5c1.8-1.7,4.1-2.9,7-3.7
		c2.9-0.8,6.5-1.2,10.6-1.2h42.6c0.8,0,1.1,0.3,1.1,1.1V62z"/>
	<path class="st1" d="M614.7,110c0.6,0,0.6-0.2,0.6-0.3c0-0.2,0.1-0.5-0.1-0.6l-15.2-18.8l1.2-0.2c4.2-0.7,7.3-2.5,9.1-5.1
		c1.9-2.7,2.8-6.4,2.8-11v-4.8c0-5.5-1.3-9.7-4-12.4c-2.6-2.8-7.1-4.2-13.3-4.2h-45.1c-1.3,0-1.8,0.5-1.8,1.8v54.4
		c0,0.7,0.2,1.1,1.2,1.1h9.1c0.8,0,1.1-0.3,1.1-1.1V91.5h28.2l13.5,17.8c0.3,0.4,0.5,0.6,0.6,0.7c0,0,0.3,0.2,1.1,0.2H614.7z
		 M593.3,82.7h-32.9V64.5c0-1.1,0.7-1.7,1.8-1.7h31.1c3,0,5.3,0.7,6.6,2.1c1.3,1.4,2,3.4,2,6.1v3.5c0,2.7-0.7,4.8-2,6.1
		C598.5,82,596.3,82.7,593.3,82.7z"/>
	<path class="st1" d="M602.7,91.3c4-0.9,7-2.7,8.9-5.4c2-2.9,3.1-6.9,3.1-11.8v-4.8c0-5.9-1.5-10.4-4.4-13.4
		c-2.9-3-7.8-4.6-14.4-4.6h-45.1c-2.1,0-3.2,1.1-3.2,3.2v54.4c0,1.6,1,2.6,2.6,2.6h9.1c1.6,0,2.6-0.9,2.6-2.6v-16h26.1l13,17.2
		c0.3,0.5,0.7,0.8,1.1,1c0.4,0.2,1,0.4,1.9,0.4h10.8c1.5,0,1.9-0.9,2-1.4c0.2-1-0.1-1.6-0.4-1.8L602.7,91.3z M602.1,109.2
		l-13.5-17.8h-28.2v17.4c0,0.8-0.3,1.1-1.1,1.1h-9.1c-1,0-1.2-0.4-1.2-1.1V54.5c0-1.3,0.5-1.8,1.8-1.8h45.1c6.2,0,10.7,1.4,13.3,4.2
		c2.7,2.8,4,6.9,4,12.4v4.8c0,4.6-0.9,8.4-2.8,11c-1.8,2.6-4.9,4.3-9.1,5.1l-1.2,0.2l15.2,18.8c0.1,0.1,0.1,0.4,0.1,0.6
		c0,0.1-0.1,0.3-0.6,0.3h-10.8c-0.9,0-1.1-0.1-1.1-0.2C602.6,109.8,602.3,109.6,602.1,109.2z"/>
	<path class="st1" d="M601.8,70.9c0-2.7-0.7-4.8-2-6.1c-1.3-1.4-3.5-2.1-6.6-2.1h-31.1c-1.1,0-1.8,0.7-1.8,1.7v18.2h32.9
		c3,0,5.3-0.7,6.6-2.1c1.3-1.4,2-3.4,2-6.1V70.9z M600.4,74.5c0,2.3-0.5,4-1.6,5.1c-1,1.1-2.9,1.6-5.5,1.6h-31.5V64.5
		c0-0.2,0-0.3,0.4-0.3h31.1c2.6,0,4.5,0.5,5.5,1.6c1,1.1,1.6,2.8,1.6,5.1V74.5z"/>
	<path class="st1" d="M689.3,57.6c-1.8-1.7-4.1-2.9-7-3.7c-2.9-0.8-6.5-1.2-10.7-1.2h-26c-4.2,0-7.8,0.4-10.6,1.2
		c-2.8,0.8-5.2,2-7,3.7c-1.8,1.7-3.1,3.9-3.9,6.5c-0.8,2.7-1.3,6.1-1.3,10v14.4c0,3.9,0.4,7.3,1.3,10.1c0.8,2.7,2.1,4.9,3.9,6.6
		c1.8,1.7,4.1,2.9,7,3.7c2.9,0.8,6.5,1.2,10.7,1.2h26c4.2,0,7.8-0.4,10.7-1.2c2.9-0.8,5.2-2,7-3.7c1.8-1.7,3.1-3.9,3.9-6.6
		c0.8-2.7,1.2-6.1,1.2-10.1V74.1c0-3.9-0.4-7.3-1.2-10C692.3,61.4,691,59.2,689.3,57.6z M682.9,87.7c0,2.2-0.2,4.1-0.6,5.7
		c-0.4,1.6-1.1,2.9-2,3.9c-0.9,1-2.2,1.6-3.7,2c-1.5,0.4-3.4,0.6-5.6,0.6h-24.9c-2.2,0-4.1-0.2-5.6-0.6c-1.6-0.4-2.8-1.1-3.7-2
		c-0.9-1-1.6-2.3-2-3.9c-0.4-1.5-0.6-3.4-0.6-5.7V75.1c0-2.2,0.2-4.1,0.6-5.7c0.4-1.6,1.1-2.9,2-3.9c0.9-1,2.2-1.6,3.7-2
		c1.5-0.4,3.4-0.6,5.6-0.6h24.9c2.2,0,4.1,0.2,5.6,0.6c1.6,0.4,2.8,1.1,3.7,2c0.9,1,1.6,2.3,2,3.9c0.4,1.5,0.6,3.4,0.6,5.7V87.7z"/>
	<path class="st1" d="M694.5,63.7c-0.9-2.9-2.3-5.3-4.3-7.2c-2-1.8-4.5-3.2-7.6-4c-3-0.8-6.8-1.2-11.1-1.2h-26c-4.3,0-8,0.4-11,1.2
		c-3.1,0.8-5.6,2.2-7.6,4c-2,1.8-3.4,4.2-4.3,7.2c-0.9,2.9-1.3,6.4-1.3,10.5v14.4c0,4.1,0.4,7.6,1.3,10.5c0.9,2.9,2.4,5.4,4.3,7.2
		c2,1.8,4.5,3.2,7.6,4c3,0.8,6.7,1.2,11,1.2h26c4.3,0,8-0.4,11.1-1.2c3.1-0.8,5.7-2.2,7.6-4c2-1.8,3.4-4.3,4.3-7.2
		c0.9-2.9,1.3-6.4,1.3-10.5V74.1C695.8,70.1,695.3,66.5,694.5,63.7z M694.4,88.6c0,3.9-0.4,7.3-1.2,10.1c-0.8,2.7-2.1,4.9-3.9,6.6
		c-1.8,1.7-4.1,2.9-7,3.7c-2.9,0.8-6.5,1.2-10.7,1.2h-26c-4.2,0-7.8-0.4-10.7-1.2c-2.8-0.7-5.2-2-7-3.7c-1.8-1.7-3.1-3.9-3.9-6.6
		c-0.8-2.7-1.3-6.1-1.3-10.1V74.1c0-3.9,0.4-7.3,1.3-10c0.8-2.7,2.1-4.9,3.9-6.5c1.8-1.7,4.1-2.9,7-3.7c2.9-0.8,6.5-1.2,10.6-1.2h26
		c4.2,0,7.8,0.4,10.7,1.2c2.9,0.8,5.2,2,7,3.7c1.8,1.7,3.1,3.9,3.9,6.5c0.8,2.7,1.2,6.1,1.2,10V88.6z"/>
	<path class="st1" d="M680.4,65.5c-0.9-1-2.2-1.6-3.7-2c-1.5-0.4-3.4-0.6-5.6-0.6h-24.9c-2.2,0-4.1,0.2-5.6,0.6
		c-1.6,0.4-2.8,1.1-3.7,2c-0.9,1-1.6,2.3-2,3.9c-0.4,1.5-0.6,3.4-0.6,5.7v12.6c0,2.2,0.2,4.1,0.6,5.7c0.4,1.6,1.1,2.9,2,3.9
		c0.9,1,2.2,1.6,3.7,2c1.5,0.4,3.4,0.6,5.6,0.6h24.9c2.2,0,4.1-0.2,5.6-0.6c1.6-0.4,2.8-1.1,3.7-2c0.9-1,1.6-2.3,2-3.9
		c0.4-1.5,0.6-3.4,0.6-5.7V75.1c0-2.2-0.2-4.1-0.6-5.7C682,67.8,681.3,66.5,680.4,65.5z M681.5,87.7c0,2.1-0.2,3.9-0.5,5.3
		c-0.3,1.4-0.9,2.4-1.6,3.2c-0.7,0.8-1.8,1.3-3.1,1.7c-1.4,0.3-3.1,0.5-5.2,0.5h-24.9c-2.1,0-3.9-0.2-5.2-0.5
		c-1.3-0.3-2.3-0.9-3.1-1.7c-0.7-0.8-1.3-1.8-1.6-3.2c-0.3-1.4-0.5-3.2-0.5-5.3V75.1c0-2.1,0.2-3.9,0.5-5.3c0.3-1.4,0.9-2.4,1.6-3.2
		c0.7-0.8,1.8-1.3,3.1-1.7c1.4-0.3,3.1-0.5,5.2-0.5h24.9c2.1,0,3.9,0.2,5.2,0.5c1.3,0.3,2.3,0.9,3.1,1.7c0.7,0.8,1.3,1.9,1.6,3.2
		c0.3,1.4,0.5,3.2,0.5,5.3V87.7z"/>
</g>
</svg>
